<?xml version="1.0" encoding="UTF-8"?>
<svg id="_x30_" xmlns="http://www.w3.org/2000/svg" version="1.1" viewBox="0 0 200 200">
  <!-- Generator: Adobe Illustrator 29.8.1, SVG Export Plug-In . SVG Version: 2.1.1 Build 2)  -->
  <defs>
    <style>
      .st0 {
        stroke: red;
      }

      .st0, .st1 {
        fill: none;
        stroke-linecap: round;
        stroke-linejoin: round;
        stroke-width: .7px;
      }

      .st1 {
        stroke: #000;
      }
    </style>
  </defs>
  <g id="LWPOLYLINE">
    <polygon class="st1" points="40.1 98.2 57 101.3 57 43 177.5 43 177.5 157 57 157 57 105 40.1 101.8 40.1 98.2"/>
  </g>
  <g id="LWPOLYLINE1" data-name="LWPOLYLINE">
    <path class="st1" d="M35.8,92.2v15.6c-4.3,0-7.8-3.5-7.8-7.8s3.5-7.8,7.8-7.8Z"/>
  </g>
  <g id="CIRCLE">
    <circle class="st1" cx="47.5" cy="161.9" r="3.3"/>
  </g>
  <g id="CIRCLE1" data-name="CIRCLE">
    <circle class="st1" cx="171.3" cy="161.9" r="3.3"/>
  </g>
  <g id="CIRCLE2" data-name="CIRCLE">
    <circle class="st1" cx="47.5" cy="38.1" r="3.3"/>
  </g>
  <g id="CIRCLE3" data-name="CIRCLE">
    <circle class="st1" cx="171.3" cy="38.1" r="3.3"/>
  </g>
  <g id="LWPOLYLINE2" data-name="LWPOLYLINE">
    <path class="st0" d="M35.8,117.7v41.7c0,7.8,6.3,14.2,14.2,14.2h118.8c7.8,0,14.2-6.3,14.2-14.2V40.6c0-7.8-6.3-14.2-14.2-14.2H50c-7.8,0-14.2,6.3-14.2,14.2v41.7c-9.8,0-17.7,7.9-17.7,17.7s7.9,17.7,17.7,17.7Z"/>
  </g>
</svg>